<svg xmlns="http://www.w3.org/2000/svg" viewBox="0 0 500 500"><g id="freepik--background-complete--inject-67"><rect x="416.78" y="398.49" width="33.12" height="0.25" style="fill:#ebebeb"></rect><rect x="322.53" y="401.21" width="8.69" height="0.25" style="fill:#ebebeb"></rect><rect x="396.59" y="389.21" width="19.19" height="0.25" style="fill:#ebebeb"></rect><rect x="52.46" y="390.89" width="43.19" height="0.25" style="fill:#ebebeb"></rect><rect x="104.56" y="390.89" width="6.33" height="0.25" style="fill:#ebebeb"></rect><rect x="131.47" y="395.11" width="93.68" height="0.25" style="fill:#ebebeb"></rect><path d="M237,337.8H43.92a5.71,5.71,0,0,1-5.71-5.71V60.66A5.71,5.71,0,0,1,43.92,55H237a5.71,5.71,0,0,1,5.71,5.71V332.09A5.71,5.71,0,0,1,237,337.8ZM43.92,55.2a5.47,5.47,0,0,0-5.46,5.46V332.09a5.47,5.47,0,0,0,5.46,5.46H237a5.47,5.47,0,0,0,5.46-5.46V60.66A5.47,5.47,0,0,0,237,55.2Z" style="fill:#ebebeb"></path><path d="M453.31,337.8H260.21a5.72,5.72,0,0,1-5.71-5.71V60.66A5.72,5.72,0,0,1,260.21,55h193.1A5.71,5.71,0,0,1,459,60.66V332.09A5.71,5.71,0,0,1,453.31,337.8ZM260.21,55.2a5.47,5.47,0,0,0-5.46,5.46V332.09a5.47,5.47,0,0,0,5.46,5.46h193.1a5.47,5.47,0,0,0,5.46-5.46V60.66a5.47,5.47,0,0,0-5.46-5.46Z" style="fill:#ebebeb"></path><rect y="382.4" width="500" height="0.25" style="fill:#ebebeb"></rect><path d="M221,283.59h6.69a0,0,0,0,1,0,0v97.16a1.19,1.19,0,0,1-1.19,1.19h-4.32a1.19,1.19,0,0,1-1.19-1.19V283.59A0,0,0,0,1,221,283.59Z" style="fill:#f0f0f0"></path><rect x="370.07" y="274.85" width="57.96" height="8.74" style="fill:#e6e6e6"></rect><path d="M262.45,283.59h6.69a0,0,0,0,1,0,0v97.16a1.19,1.19,0,0,1-1.19,1.19h-4.31a1.19,1.19,0,0,1-1.19-1.19V283.59A0,0,0,0,1,262.45,283.59Z" style="fill:#e6e6e6"></path><path d="M417.47,283.59h6.69a0,0,0,0,1,0,0v97.16a1.19,1.19,0,0,1-1.19,1.19h-4.31a1.19,1.19,0,0,1-1.19-1.19V283.59A0,0,0,0,1,417.47,283.59Z" style="fill:#e6e6e6"></path><rect x="217.16" y="274.85" width="169.44" height="8.74" style="fill:#f5f5f5"></rect><path d="M376,283.59h6.69a0,0,0,0,1,0,0v97.16a1.19,1.19,0,0,1-1.19,1.19h-4.32a1.19,1.19,0,0,1-1.19-1.19V283.59A0,0,0,0,1,376,283.59Z" style="fill:#f0f0f0"></path><path d="M415.47,274.85H400.1v-1.37a4.68,4.68,0,0,1,4.92-4.67l6,.33a4.67,4.67,0,0,1,4.42,4.67Z" style="fill:#f0f0f0"></path><path d="M374,243.07a2.27,2.27,0,0,0-2.27-2.16H356.16a2.27,2.27,0,0,0-2.27,2.16l3.69,32.38h23.19Z" style="fill:#e0e0e0"></path><path d="M416.16,193.29h-5.79l-6.5,61.15h5.78a2,2,0,0,0,1.93-1.74L417.71,195A1.53,1.53,0,0,0,416.16,193.29Z" style="fill:#e0e0e0"></path><path d="M407.21,254.44H320.45a1.53,1.53,0,0,1-1.55-1.74L325,195a2,2,0,0,1,1.92-1.74h86.76a1.53,1.53,0,0,1,1.55,1.74l-6.13,57.67A2,2,0,0,1,407.21,254.44Z" style="fill:#ebebeb"></path><path d="M405.59,248.79H323.77a1.34,1.34,0,0,1-1.35-1.51L327.77,197a1.73,1.73,0,0,1,1.68-1.52h81.81a1.35,1.35,0,0,1,1.36,1.52l-5.36,50.32A1.73,1.73,0,0,1,405.59,248.79Z" style="fill:#fafafa"></path><path d="M381.64,272.93H353.12a1.25,1.25,0,0,0-1.26,1.26h0a1.26,1.26,0,0,0,1.26,1.26h28.52a1.27,1.27,0,0,0,1.26-1.26h0A1.26,1.26,0,0,0,381.64,272.93Z" style="fill:#e0e0e0"></path><rect x="324.66" y="271.25" width="48.38" height="3.6" style="fill:#ebebeb"></rect><rect x="231.11" y="287.56" width="71.2" height="94.75" style="fill:#f5f5f5"></rect><rect x="302.32" y="287.56" width="13.58" height="94.75" style="fill:#e6e6e6"></rect><rect x="236.1" y="294.59" width="61.6" height="23.01" style="fill:#fafafa"></rect><rect x="236.1" y="320.11" width="61.6" height="23.01" style="fill:#fafafa"></rect><rect x="236.1" y="345.64" width="61.6" height="23.01" style="fill:#fafafa"></rect><path d="M269.47,306.1a2.57,2.57,0,1,1-2.57-2.57A2.57,2.57,0,0,1,269.47,306.1Z" style="fill:#ebebeb"></path><path d="M269.47,331.62a2.57,2.57,0,1,1-2.57-2.57A2.56,2.56,0,0,1,269.47,331.62Z" style="fill:#ebebeb"></path><path d="M269.47,357.14a2.57,2.57,0,1,1-2.57-2.57A2.57,2.57,0,0,1,269.47,357.14Z" style="fill:#ebebeb"></path><rect x="87.44" y="133.77" width="97.79" height="246.38" style="fill:#e0e0e0"></rect><path d="M185.23,131.61v250.7h18V131.61Z" style="fill:#e0e0e0"></path><path d="M70.29,131.61v250.7h18V131.61Z" style="fill:#e6e6e6"></path><path d="M67.23,131.61v250.7H187.39V131.61Zm115.84,4.32v45H71.55v-45ZM71.55,279.44v-45H183.07v45Zm111.52,4.32v44.95H71.55V283.76ZM71.55,230.16V185.21H183.07v44.95Zm0,147.83V333H183.07v45Z" style="fill:#f0f0f0"></path><rect x="144.11" y="244.97" width="4.16" height="34.88" transform="translate(292.37 524.82) rotate(180)" style="fill:#e6e6e6"></rect><rect x="148.26" y="244.97" width="4.16" height="34.88" transform="translate(300.69 524.82) rotate(180)" style="fill:#e0e0e0"></rect><rect x="135.8" y="247.42" width="8.31" height="32.43" transform="translate(279.9 527.27) rotate(180)" style="fill:#e6e6e6"></rect><rect x="126.27" y="244.97" width="5.37" height="34.88" transform="translate(257.91 524.82) rotate(180)" style="fill:#f0f0f0"></rect><rect x="131.64" y="244.97" width="4.16" height="34.88" transform="translate(267.43 524.82) rotate(180)" style="fill:#ebebeb"></rect><rect x="94.74" y="244.97" width="5.37" height="34.88" transform="translate(194.86 524.82) rotate(180)" style="fill:#e6e6e6"></rect><rect x="100.11" y="244.97" width="4.16" height="34.88" transform="translate(204.38 524.82) rotate(180)" style="fill:#ebebeb"></rect><rect x="112.58" y="244.97" width="5.37" height="34.88" transform="translate(230.54 524.82) rotate(180)" style="fill:#e6e6e6"></rect><rect x="117.95" y="244.97" width="4.16" height="34.88" transform="translate(240.07 524.82) rotate(180)" style="fill:#e0e0e0"></rect><rect x="86.43" y="245.79" width="8.31" height="34.05" transform="translate(181.17 525.64) rotate(180)" style="fill:#ebebeb"></rect><rect x="82.27" y="245.79" width="4.16" height="34.05" transform="translate(168.7 525.64) rotate(180)" style="fill:#e0e0e0"></rect><rect x="107.04" y="245.79" width="5.54" height="34.05" transform="translate(219.62 525.64) rotate(180)" style="fill:#e0e0e0"></rect><rect x="104.27" y="245.79" width="2.77" height="34.05" transform="translate(211.31 525.64) rotate(180)" style="fill:#f0f0f0"></rect><rect x="117.95" y="247.42" width="8.31" height="32.43" transform="translate(244.22 527.27) rotate(180)" style="fill:#f5f5f5"></rect><rect x="164.89" y="244.97" width="5.37" height="34.88" transform="translate(335.15 524.82) rotate(180)" style="fill:#ebebeb"></rect><rect x="170.26" y="244.97" width="4.16" height="34.88" transform="translate(344.68 524.82) rotate(180)" style="fill:#e6e6e6"></rect><rect x="156.58" y="245.79" width="8.31" height="34.05" transform="translate(321.47 525.64) rotate(180)" style="fill:#e0e0e0"></rect><rect x="152.42" y="245.79" width="4.16" height="34.05" transform="translate(309 525.64) rotate(180)" style="fill:#ebebeb"></rect><rect x="177.19" y="245.79" width="5.54" height="34.05" transform="translate(359.92 525.64) rotate(180)" style="fill:#ebebeb"></rect><rect x="174.42" y="245.79" width="2.77" height="34.05" transform="translate(351.61 525.64) rotate(180)" style="fill:#fafafa"></rect><rect x="116.74" y="294.68" width="4.16" height="34.88" style="fill:#e6e6e6"></rect><rect x="112.58" y="294.68" width="4.16" height="34.88" style="fill:#e0e0e0"></rect><rect x="120.9" y="294.68" width="8.31" height="32.43" style="fill:#e6e6e6"></rect><rect x="133.36" y="294.68" width="5.37" height="34.88" style="fill:#f0f0f0"></rect><rect x="129.21" y="294.68" width="4.16" height="34.88" style="fill:#ebebeb"></rect><rect x="164.89" y="294.68" width="5.37" height="34.88" style="fill:#e6e6e6"></rect><rect x="160.73" y="294.68" width="4.16" height="34.88" style="fill:#ebebeb"></rect><rect x="147.05" y="294.68" width="5.37" height="34.88" style="fill:#e6e6e6"></rect><rect x="142.89" y="294.68" width="4.16" height="34.88" style="fill:#e0e0e0"></rect><rect x="170.26" y="294.68" width="8.31" height="34.05" style="fill:#ebebeb"></rect><rect x="178.57" y="294.68" width="4.16" height="34.05" style="fill:#e0e0e0"></rect><rect x="152.42" y="294.68" width="5.54" height="34.05" style="fill:#e0e0e0"></rect><rect x="157.96" y="294.68" width="2.77" height="34.05" style="fill:#f0f0f0"></rect><rect x="138.74" y="294.68" width="8.31" height="32.43" style="fill:#f5f5f5"></rect><rect x="94.74" y="294.68" width="5.37" height="34.88" style="fill:#ebebeb"></rect><rect x="90.59" y="294.68" width="4.16" height="34.88" style="fill:#e6e6e6"></rect><rect x="100.11" y="294.68" width="8.31" height="34.05" style="fill:#e0e0e0"></rect><rect x="108.43" y="294.68" width="4.16" height="34.05" style="fill:#ebebeb"></rect><rect x="82.27" y="294.68" width="5.54" height="34.05" style="fill:#ebebeb"></rect><rect x="87.81" y="294.68" width="2.77" height="34.05" style="fill:#fafafa"></rect><rect x="144.11" y="344.38" width="4.16" height="34.88" transform="translate(292.37 723.65) rotate(180)" style="fill:#e6e6e6"></rect><rect x="148.26" y="344.38" width="4.16" height="34.88" transform="translate(300.69 723.65) rotate(180)" style="fill:#e0e0e0"></rect><rect x="135.8" y="346.83" width="8.31" height="32.43" transform="translate(279.9 726.1) rotate(180)" style="fill:#e6e6e6"></rect><rect x="126.27" y="344.38" width="5.37" height="34.88" transform="translate(257.91 723.65) rotate(180)" style="fill:#f0f0f0"></rect><rect x="131.64" y="344.38" width="4.16" height="34.88" transform="translate(267.43 723.65) rotate(180)" style="fill:#ebebeb"></rect><rect x="94.74" y="344.38" width="5.37" height="34.88" transform="translate(194.86 723.65) rotate(180)" style="fill:#e6e6e6"></rect><rect x="100.11" y="344.38" width="4.16" height="34.88" transform="translate(204.38 723.65) rotate(180)" style="fill:#ebebeb"></rect><rect x="112.58" y="344.38" width="5.37" height="34.88" transform="translate(230.54 723.65) rotate(180)" style="fill:#e6e6e6"></rect><rect x="117.95" y="344.38" width="4.16" height="34.88" transform="translate(240.07 723.65) rotate(180)" style="fill:#e0e0e0"></rect><rect x="86.43" y="345.21" width="8.31" height="34.05" transform="translate(181.17 724.47) rotate(180)" style="fill:#ebebeb"></rect><rect x="82.27" y="345.21" width="4.16" height="34.05" transform="translate(168.7 724.47) rotate(180)" style="fill:#e0e0e0"></rect><rect x="107.04" y="345.21" width="5.54" height="34.05" transform="translate(219.62 724.47) rotate(180)" style="fill:#e0e0e0"></rect><rect x="104.27" y="345.21" width="2.77" height="34.05" transform="translate(211.31 724.47) rotate(180)" style="fill:#f0f0f0"></rect><rect x="117.95" y="346.83" width="8.31" height="32.43" transform="translate(244.22 726.1) rotate(180)" style="fill:#f5f5f5"></rect><rect x="164.89" y="344.38" width="5.37" height="34.88" transform="translate(335.15 723.65) rotate(180)" style="fill:#ebebeb"></rect><rect x="170.26" y="344.38" width="4.16" height="34.88" transform="translate(344.68 723.65) rotate(180)" style="fill:#e6e6e6"></rect><rect x="156.58" y="345.21" width="8.31" height="34.05" transform="translate(321.47 724.47) rotate(180)" style="fill:#e0e0e0"></rect><rect x="152.42" y="345.21" width="4.16" height="34.05" transform="translate(309 724.47) rotate(180)" style="fill:#ebebeb"></rect><rect x="177.19" y="345.21" width="5.54" height="34.05" transform="translate(359.92 724.47) rotate(180)" style="fill:#ebebeb"></rect><rect x="174.42" y="345.21" width="2.77" height="34.05" transform="translate(351.61 724.47) rotate(180)" style="fill:#fafafa"></rect><polygon points="120.66 181.43 118.77 159.88 146.11 159.88 147.99 181.43 120.66 181.43" style="fill:#f0f0f0"></polygon><polygon points="120.66 181.43 118.77 159.88 117.3 159.88 119.19 181.43 120.66 181.43" style="fill:#e0e0e0"></polygon><polygon points="123.25 179.24 121.75 162.08 143.51 162.08 145.01 179.24 123.25 179.24" style="fill:#fafafa"></polygon><polygon points="124.92 177.82 123.67 163.49 141.84 163.49 143.1 177.82 124.92 177.82" style="fill:#ebebeb"></polygon><polygon points="89.84 181.43 117.3 181.43 114.25 146.61 86.8 146.61 89.84 181.43" style="fill:#ebebeb"></polygon><polygon points="89.84 181.43 88.53 181.43 85.49 146.61 86.8 146.61 89.84 181.43" style="fill:#e0e0e0"></polygon><polygon points="92.33 177.88 114.19 177.88 111.77 150.16 89.91 150.16 92.33 177.88" style="fill:#e0e0e0"></polygon><polygon points="93.93 175.6 112.19 175.6 110.17 152.44 91.91 152.44 93.93 175.6" style="fill:#fafafa"></polygon><rect x="97.1" y="156.81" width="10.65" height="10.65" rx="3.18" transform="translate(-84.65 119.92) rotate(-45)" style="fill:#ebebeb"></rect><rect x="99.56" y="164.11" width="9.37" height="9.37" rx="3.18" transform="translate(-88.82 123.15) rotate(-45)" style="fill:#e6e6e6"></rect><polygon points="153.16 181.43 166.61 167.98 180.06 181.43 153.16 181.43" style="fill:#f5f5f5"></polygon><polygon points="166.61 167.98 153.16 181.43 166.61 181.43 166.61 167.98" style="fill:#e6e6e6"></polygon><circle cx="103.73" cy="206.83" r="12.76" transform="translate(-115.87 133.93) rotate(-45)" style="fill:#f0f0f0"></circle><path d="M104.62,229.38h-1.78v-8.45h.89a14.1,14.1,0,0,0,0-28.2V191a15.88,15.88,0,0,1,.89,31.73Z" style="fill:#ebebeb"></path><path d="M111.23,229.58H96.05a3.41,3.41,0,0,1,3.4-3.41h8.37a3.41,3.41,0,0,1,3.41,3.41Z" style="fill:#ebebeb"></path><path d="M136.74,229v-8.84a.85.85,0,0,1,0-1.7c3.36,0,6.74,0,10.11,0v12.27H136.74A.85.85,0,0,1,136.74,229Z" style="fill:#ebebeb"></path><rect x="136.74" y="220.16" width="7.86" height="8.83" style="fill:#f5f5f5"></rect><path d="M142.94,229.84h27.24c1.87,0,3.39-2.35,3.39-5.26s-1.52-5.27-3.39-5.27H142.94Z" style="fill:#fafafa"></path><path d="M142.94,218.46c8.92,0,17.85-.16,26.76,0,6.11.11,6.44,11.82.45,12.23-4.18.29-8.47,0-12.65,0H142.94a.85.85,0,0,1,0-1.69h25.35c2,0,3.36,0,4.11-2.33.66-2,.45-6.07-2.22-6.51a5.65,5.65,0,0,0-.92,0H142.94a.85.85,0,0,1,0-1.7Z" style="fill:#ebebeb"></path><path d="M136.74,216.85V208a.85.85,0,0,1,0-1.69c3.36,0,6.74,0,10.11,0v12.27H136.74A.85.85,0,0,1,136.74,216.85Z" style="fill:#ebebeb"></path><rect x="136.74" y="208.01" width="7.86" height="8.83" style="fill:#f5f5f5"></rect><path d="M142.94,217.7h27.24c1.87,0,3.39-2.36,3.39-5.27s-1.52-5.27-3.39-5.27H142.94Z" style="fill:#fafafa"></path><path d="M142.94,206.32c8.92,0,17.85-.16,26.76,0,6.11.11,6.44,11.81.45,12.22-4.18.29-8.47,0-12.65,0H142.94a.85.85,0,0,1,0-1.69h25.35c2,0,3.36,0,4.11-2.33.66-2,.45-6.07-2.22-6.51a5.65,5.65,0,0,0-.92,0H142.94a.85.85,0,0,1,0-1.69Z" style="fill:#ebebeb"></path></g><g id="freepik--Shadow--inject-67"><ellipse id="freepik--path--inject-67" cx="245.18" cy="412.39" rx="193.89" ry="11.32" style="fill:#f5f5f5"></ellipse></g><g id="freepik--Graphic--inject-67"><path d="M178.6,255.87V271a10.63,10.63,0,0,0,10.62,10.62H334A10.62,10.62,0,0,0,344.6,271V255.87Z" style="fill:#DD1717"></path><rect x="178.6" y="158.97" width="166" height="120.65" rx="10.62" style="fill:#DD1717"></rect><rect x="178.6" y="158.97" width="166" height="120.65" rx="10.62" style="fill:#fff;opacity:0.8"></rect><path d="M243.87,256.52h-2.51V255h6.83v1.48h-2.51v6.36h-1.81Z" style="fill:#263238"></path><path d="M254.16,262.88l-1.51-2.19H251v2.19h-1.81V255h3.39a4.39,4.39,0,0,1,1.81.35,2.73,2.73,0,0,1,1.18,1,2.69,2.69,0,0,1,.41,1.51,2.65,2.65,0,0,1-.42,1.51,2.68,2.68,0,0,1-1.19,1l1.76,2.52Zm-.46-6a1.87,1.87,0,0,0-1.24-.35H251v2.73h1.48a1.87,1.87,0,0,0,1.24-.36,1.4,1.4,0,0,0,0-2Z" style="fill:#263238"></path><path d="M263.47,261.42v1.46H257.4V255h5.92v1.45H259.2v1.71h3.64v1.41H259.2v1.81Z" style="fill:#263238"></path><path d="M272.1,255v7.84h-1.49l-3.91-4.76v4.76h-1.79V255h1.5l3.9,4.76V255Z" style="fill:#263238"></path><path d="M274,255h3.56a5,5,0,0,1,2.26.49,3.61,3.61,0,0,1,1.52,1.37,4.13,4.13,0,0,1,0,4.12,3.61,3.61,0,0,1-1.52,1.37,5,5,0,0,1-2.26.49H274Zm3.47,6.35a2.63,2.63,0,0,0,1.88-.66A2.28,2.28,0,0,0,280,259a2.31,2.31,0,0,0-.7-1.78,2.67,2.67,0,0,0-1.88-.65h-1.65v4.86Z" style="fill:#263238"></path><rect x="196.98" y="235.8" width="14.92" height="6.98" style="fill:#DD1717"></rect><rect x="219.85" y="229.54" width="14.92" height="13.25" style="fill:#263238"></rect><rect x="242.71" y="227.73" width="14.92" height="15.06" style="fill:#DD1717"></rect><rect x="265.58" y="216.13" width="14.92" height="26.66" style="fill:#263238"></rect><rect x="288.44" y="198.54" width="14.92" height="44.24" style="fill:#DD1717"></rect><rect x="311.3" y="183.5" width="14.92" height="59.29" style="fill:#263238"></rect></g><g id="freepik--chart-1--inject-67"><path d="M251.8,96.39a33.48,33.48,0,0,0-24.16-10.28v21a18.51,18.51,0,0,1,13.55,5.9l10.61-10.61Z" style="fill:#DD1717"></path><path d="M251.8,96.39a33.48,33.48,0,0,0-24.16-10.28v21a18.51,18.51,0,0,1,13.55,5.9l10.61-10.61Z" style="fill:#fff;opacity:0.30000000000000004"></path><path d="M241.19,107,251.8,96.39a33.48,33.48,0,0,0-24.16-10.28v15A18.51,18.51,0,0,1,241.19,107Z" style="fill:#DD1717"></path><path d="M239.19,119a18.53,18.53,0,0,1,4.77,9.68,18.56,18.56,0,0,1-36.64,0,18.57,18.57,0,0,1,18.32-15.59v-21a33.58,33.58,0,0,0-33.58,33.58c0,1,.06,2,.14,3-.08,1-.14,2-.14,3a33.58,33.58,0,0,0,67.15,0c0-1,0-2-.14-3,.09-1,.14-2,.14-3a33.42,33.42,0,0,0-9.41-23.3L239.19,113Z" style="fill:#DD1717"></path><path d="M239.19,119a18.53,18.53,0,0,1,4.77,9.68,18.56,18.56,0,0,1-36.64,0,18.57,18.57,0,0,1,18.32-15.59v-21a33.58,33.58,0,0,0-33.58,33.58c0,1,.06,2,.14,3-.08,1-.14,2-.14,3a33.58,33.58,0,0,0,67.15,0c0-1,0-2-.14-3,.09-1,.14-2,.14-3a33.42,33.42,0,0,0-9.41-23.3L239.19,113Z" style="fill:#fff;opacity:0.30000000000000004"></path><path d="M249.8,102.39,239.19,113a18.57,18.57,0,1,1-13.55-5.9h0v-15h0a33.6,33.6,0,1,0,24.16,10.28Z" style="fill:#fff;opacity:0.6000000000000001"></path><path d="M217.92,130.61v1.85h-7.41V131l3.78-3.57a3.9,3.9,0,0,0,.81-1,1.75,1.75,0,0,0,.21-.82,1.07,1.07,0,0,0-.4-.9,1.84,1.84,0,0,0-1.17-.31,2.77,2.77,0,0,0-1.16.24,2.27,2.27,0,0,0-.87.74l-1.65-1.07a3.89,3.89,0,0,1,1.58-1.33,5.22,5.22,0,0,1,2.31-.49,4.77,4.77,0,0,1,1.92.36,2.92,2.92,0,0,1,1.27,1,2.61,2.61,0,0,1,.45,1.53,3.5,3.5,0,0,1-.33,1.5,5.77,5.77,0,0,1-1.3,1.59l-2.26,2.13Z" style="fill:#263238"></path><path d="M220.86,132a4,4,0,0,1-1.49-1.75,7.12,7.12,0,0,1,0-5.44,4,4,0,0,1,1.49-1.75,4,4,0,0,1,2.17-.6,4,4,0,0,1,2.17.6,4.15,4.15,0,0,1,1.49,1.75,7.12,7.12,0,0,1,0,5.44A4.09,4.09,0,0,1,225.2,132a4,4,0,0,1-2.17.6A4,4,0,0,1,220.86,132Zm3.57-2.09a5.81,5.81,0,0,0,0-4.76,1.66,1.66,0,0,0-2.8,0,5.81,5.81,0,0,0,0,4.76,1.66,1.66,0,0,0,2.8,0Z" style="fill:#263238"></path><path d="M228.84,127.22a3.19,3.19,0,0,1,0-3.94,2.29,2.29,0,0,1,1.76-.73,2.26,2.26,0,0,1,1.75.73,3.23,3.23,0,0,1,0,3.94,2.26,2.26,0,0,1-1.75.73A2.29,2.29,0,0,1,228.84,127.22Zm2.51-.81a2.63,2.63,0,0,0,0-2.32.9.9,0,0,0-1.49,0,2,2,0,0,0-.28,1.15,2,2,0,0,0,.28,1.16.91.91,0,0,0,1.49,0Zm5.09-3.75h1.66l-6.69,9.8h-1.66Zm-.44,9.58a2.18,2.18,0,0,1-.86-.94,3.45,3.45,0,0,1,0-2.86,2.18,2.18,0,0,1,.86-.94,2.38,2.38,0,0,1,1.25-.33,2.29,2.29,0,0,1,1.76.73,3.19,3.19,0,0,1,0,3.94,2.29,2.29,0,0,1-1.76.73A2.38,2.38,0,0,1,236,132.24Zm2-1.21a2.09,2.09,0,0,0,.27-1.16,2,2,0,0,0-.27-1.15.85.85,0,0,0-.75-.4.87.87,0,0,0-.74.39,2.54,2.54,0,0,0,0,2.32.91.91,0,0,0,1.49,0Z" style="fill:#263238"></path><path d="M249.8,223.72h0a.74.74,0,0,1-.75-.75V211.15a4.87,4.87,0,0,0-1.42-3.44l-20.78-20.78a6.33,6.33,0,0,1-1.87-4.49V171.05a.76.76,0,0,1,.75-.75h0a.75.75,0,0,1,.75.75v11.39a4.81,4.81,0,0,0,1.43,3.43l20.78,20.78a6.32,6.32,0,0,1,1.86,4.5V223A.75.75,0,0,1,249.8,223.72Z" style="fill:#263238"></path></g><g id="freepik--chart-2--inject-67"><path d="M296.89,120.24h-1.6v2.06h-2.21v-2.06H287.8v-1.53l4.62-6.21h2.38l-4.28,5.89h2.63v-1.83h2.14v1.83h1.6Z" style="fill:#263238"></path><path d="M304,117a2.72,2.72,0,0,1,1,2.21,3.05,3.05,0,0,1-.45,1.63,3.09,3.09,0,0,1-1.36,1.17,5.16,5.16,0,0,1-2.27.45,7.71,7.71,0,0,1-2-.28,5.23,5.23,0,0,1-1.7-.77l.89-1.74a4.23,4.23,0,0,0,1.29.65,5.05,5.05,0,0,0,1.5.23,2.35,2.35,0,0,0,1.34-.33,1.08,1.08,0,0,0,.49-.94,1,1,0,0,0-.51-1,3.45,3.45,0,0,0-1.77-.33h-2.51l.51-5.51h6v1.82h-4.09l-.16,1.86h.8A4.66,4.66,0,0,1,304,117Z" style="fill:#263238"></path><path d="M306.23,117.05a3.18,3.18,0,0,1,0-3.93,2.29,2.29,0,0,1,1.76-.73,2.26,2.26,0,0,1,1.75.73,3.22,3.22,0,0,1,0,3.93,2.27,2.27,0,0,1-1.75.74A2.3,2.3,0,0,1,306.23,117.05Zm2.51-.8a2,2,0,0,0,.27-1.16,2,2,0,0,0-.27-1.16.85.85,0,0,0-.75-.4.87.87,0,0,0-.74.4,2,2,0,0,0-.28,1.16,2,2,0,0,0,.28,1.15.84.84,0,0,0,.74.4A.86.86,0,0,0,308.74,116.25Zm5.09-3.75h1.66l-6.69,9.8h-1.66Zm-.44,9.58a2.18,2.18,0,0,1-.86-.94,3.45,3.45,0,0,1,0-2.86,2.21,2.21,0,0,1,.86-1,2.47,2.47,0,0,1,1.25-.32,2.29,2.29,0,0,1,1.76.73,2.81,2.81,0,0,1,.68,2,2.76,2.76,0,0,1-.68,2,2.3,2.3,0,0,1-1.76.74A2.38,2.38,0,0,1,313.39,122.08Zm2-1.22a2,2,0,0,0,.27-1.15,2.07,2.07,0,0,0-.27-1.16.87.87,0,0,0-.75-.4.84.84,0,0,0-.74.4,2,2,0,0,0-.28,1.16,2,2,0,0,0,.28,1.16.9.9,0,0,0,1.49,0Z" style="fill:#263238"></path><path d="M329.23,132l-13-7.51a18.57,18.57,0,0,1-34.79-5.66,18.63,18.63,0,0,1,9.42-13.27v-6l-7.49-13a33.55,33.55,0,0,0-17.17,29.29c0,1,.05,2,.14,3-.08,1-.14,2-.14,3a33.58,33.58,0,0,0,63,16.13Z" style="fill:#263238"></path><path d="M299.78,134.5a18.59,18.59,0,0,1-8.91-34.9l-7.49-13A33.57,33.57,0,1,0,329.23,132l-13-7.51A18.59,18.59,0,0,1,299.78,134.5Z" style="fill:#fff;opacity:0.6000000000000001"></path><path d="M329.23,132l-13-7.51a18.57,18.57,0,0,1-34.79-5.66,18.63,18.63,0,0,1,9.42-13.27v-6l-7.49-13a33.55,33.55,0,0,0-17.17,29.29c0,1,.05,2,.14,3-.08,1-.14,2-.14,3a33.58,33.58,0,0,0,63,16.13Z" style="fill:#fff;opacity:0.6000000000000001"></path><path d="M320.24,126.53l13,7.51a33.4,33.4,0,0,0,4.13-16.13c0-1-.06-2-.15-3,.09-1,.15-2,.15-3a33.58,33.58,0,0,0-50-29.29v6l7.49,13A18.56,18.56,0,0,1,322.11,115a18.64,18.64,0,0,1-1.87,5.58Z" style="fill:#263238"></path><path d="M320.24,126.53l13,7.51a33.4,33.4,0,0,0,4.13-16.13c0-1-.06-2-.15-3,.09-1,.15-2,.15-3a33.58,33.58,0,0,0-50-29.29v6l7.49,13A18.56,18.56,0,0,1,322.11,115a18.64,18.64,0,0,1-1.87,5.58Z" style="fill:#fff;opacity:0.4"></path><path d="M303.78,78.34a33.31,33.31,0,0,0-16.4,4.28l7.49,13a18.58,18.58,0,0,1,25.37,24.93l13,7.51a33.57,33.57,0,0,0-29.45-49.7Z" style="fill:#263238"></path><path d="M273,212.2h0a.76.76,0,0,1-.75-.75v-8.83a6.37,6.37,0,0,1,1.87-4.5l20.78-20.77a4.87,4.87,0,0,0,1.42-3.44V161.52a.76.76,0,0,1,.75-.75h0a.76.76,0,0,1,.75.75v12.39a6.4,6.4,0,0,1-1.86,4.5l-20.78,20.77a4.83,4.83,0,0,0-1.43,3.44v8.83A.75.75,0,0,1,273,212.2Z" style="fill:#263238"></path></g><g id="freepik--chart-3--inject-67"><path d="M374.47,252.62a3,3,0,0,1,1.22,1.07,2.91,2.91,0,0,1,.45,1.61,3.12,3.12,0,0,1-.49,1.72,3.32,3.32,0,0,1-1.34,1.14,4.28,4.28,0,0,1-1.88.4,4.16,4.16,0,0,1-3.22-1.26,5.1,5.1,0,0,1-1.16-3.6,6.07,6.07,0,0,1,.63-2.86,4.28,4.28,0,0,1,1.75-1.8,5.36,5.36,0,0,1,2.61-.62,6.18,6.18,0,0,1,1.51.18,3.89,3.89,0,0,1,1.22.49l-.84,1.67a3.16,3.16,0,0,0-1.83-.49,2.63,2.63,0,0,0-2,.73,3,3,0,0,0-.79,2.11,3.28,3.28,0,0,1,2.42-.87A3.84,3.84,0,0,1,374.47,252.62Zm-1,3.85a1.3,1.3,0,0,0,.46-1.06,1.32,1.32,0,0,0-.46-1.07,1.73,1.73,0,0,0-1.21-.4,1.79,1.79,0,0,0-1.21.41,1.34,1.34,0,0,0-.48,1.06,1.32,1.32,0,0,0,.46,1,1.85,1.85,0,0,0,1.26.4A1.73,1.73,0,0,0,373.48,256.47Z" style="fill:#263238"></path><path d="M379,258a4.09,4.09,0,0,1-1.49-1.75,7.12,7.12,0,0,1,0-5.44A4.15,4.15,0,0,1,379,249a4,4,0,0,1,2.17-.6,4,4,0,0,1,2.17.6,4.08,4.08,0,0,1,1.49,1.75,7.12,7.12,0,0,1,0,5.44,4,4,0,0,1-1.49,1.75,4,4,0,0,1-2.17.6A4,4,0,0,1,379,258Zm3.58-2.09a5.81,5.81,0,0,0,0-4.76,1.66,1.66,0,0,0-2.8,0,5.81,5.81,0,0,0,0,4.76,1.66,1.66,0,0,0,2.8,0Z" style="fill:#263238"></path><path d="M387,253.15a3.19,3.19,0,0,1,0-3.94,2.47,2.47,0,0,1,3.51,0,3.23,3.23,0,0,1,0,3.94,2.47,2.47,0,0,1-3.51,0Zm2.51-.81a2.63,2.63,0,0,0,0-2.32.89.89,0,0,0-.75-.39.87.87,0,0,0-.75.4,2,2,0,0,0-.27,1.15,2.09,2.09,0,0,0,.27,1.16.92.92,0,0,0,1.5,0Zm5.09-3.75h1.66l-6.69,9.8h-1.67Zm-.45,9.58a2.31,2.31,0,0,1-.86-.94,3.56,3.56,0,0,1,0-2.86,2.31,2.31,0,0,1,.86-.94,2.42,2.42,0,0,1,1.26-.33,2.26,2.26,0,0,1,1.75.73,3.19,3.19,0,0,1,0,3.94,2.26,2.26,0,0,1-1.75.73A2.42,2.42,0,0,1,394.13,258.17Zm2-1.21a2.09,2.09,0,0,0,.27-1.16,2,2,0,0,0-.27-1.15.87.87,0,0,0-.75-.4.86.86,0,0,0-.74.39,2.46,2.46,0,0,0,0,2.32.86.86,0,0,0,.74.39A.89.89,0,0,0,396.14,257Z" style="fill:#263238"></path><path d="M354.6,239.11l13,7.5a18.56,18.56,0,0,1,34.78,5.66A18.59,18.59,0,0,1,393,265.55v6l7.49,13a33.57,33.57,0,0,0,17.17-29.29c0-1-.05-2.05-.14-3.05.08-1,.14-2,.14-2.95a33.58,33.58,0,0,0-63-16.13Z" style="fill:#DD1717"></path><path d="M363.6,244.61l-13-7.5a33.5,33.5,0,0,0-4.12,16.13c0,1,0,2,.15,3-.09,1-.15,2-.15,3a33.58,33.58,0,0,0,50,29.29v-6l-7.49-13a18.58,18.58,0,0,1-27.24-13.35,18.61,18.61,0,0,1,1.87-5.59Z" style="fill:#DD1717"></path><path d="M354.6,239.11l13,7.5a18.56,18.56,0,0,1,34.78,5.66A18.59,18.59,0,0,1,393,265.55v6l7.49,13a33.57,33.57,0,0,0,17.17-29.29c0-1-.05-2.05-.14-3.05.08-1,.14-2,.14-2.95a33.58,33.58,0,0,0-63-16.13Z" style="fill:#fff;opacity:0.30000000000000004"></path><path d="M363.6,244.61l-13-7.5a33.5,33.5,0,0,0-4.12,16.13c0,1,0,2,.15,3-.09,1-.15,2-.15,3a33.58,33.58,0,0,0,50,29.29v-6l-7.49-13a18.58,18.58,0,0,1-27.24-13.35,18.61,18.61,0,0,1,1.87-5.59Z" style="fill:#fff;opacity:0.30000000000000004"></path><path d="M384.06,230.65a18.59,18.59,0,0,1,8.91,34.9l7.49,13a33.58,33.58,0,1,0-45.86-45.42l13,7.5A18.58,18.58,0,0,1,384.06,230.65Z" style="fill:#DD1717"></path><path d="M380.06,286.81a33.42,33.42,0,0,0,16.4-4.28l-7.49-13a18.58,18.58,0,0,1-25.37-24.94l-13-7.5a33.58,33.58,0,0,0,29.46,49.7Z" style="fill:#fff;opacity:0.6000000000000001"></path><path d="M339.59,258.6H309a6.4,6.4,0,0,1-4.5-1.86l-8.58-8.59a.75.75,0,0,1,0-1.06h0a.75.75,0,0,1,1.06,0l8.58,8.59A4.88,4.88,0,0,0,309,257.1h30.61a.75.75,0,0,1,.75.75h0A.74.74,0,0,1,339.59,258.6Z" style="fill:#263238"></path></g></svg>